<svg viewBox="0 0 2000 2000" xmlns="http://www.w3.org/2000/svg"><g fill="#38a8e0"><path d="m247.44 0 164.96 285.85-.01.15h329.92l-164.95-286z"/><path d="m247.44 571 164.96 285.85-.01.15h329.92l-164.95-286z"/><path d="m742.31 286 164.96 285h329.91l-164.95-285z"/><path d="m1732.06 286-164.96-286h-329.92l164.96 286z"/><path d="m247.44 1143 164.96 285.85-.01.15h329.92l-164.95-286z"/><path d="m742.31 857 164.96 286h329.91l-164.95-286z"/><path d="m1237.18 571 164.96 286h329.92l-164.96-286z"/><path d="m247.44 1714 164.96 285.85-.01.15h329.92l-164.95-286z"/><path d="m742.31 1429 164.96 285h329.91l-164.95-285z"/><path d="m1237.18 1143 164.96 286h329.92l-164.96-286z"/><path d="m1237.18 1714 164.96 286h329.92l-164.96-286z"/></g><path d="m742.31 286h-329.92l-164.95 285h329.92z" fill="#683b11"/><path d="m1237.18 0h-329.91l-164.96 286h329.92z" fill="#683b11"/><path d="m742.31 857h-329.92l-164.95 286h329.92z" fill="#683b11"/><path d="m1237.18 571h-329.91l-164.96 286h329.92z" fill="#683b11"/><path d="m1732.06 286h-329.92l-164.96 285h329.92z" fill="#683b11"/><path d="m247.44 1714h329.92l164.95-285h-329.92z" fill="#683b11"/><path d="m742.31 1429h329.92l164.95-286h-329.91z" fill="#683b11"/><path d="m1237.18 1143h329.92l164.96-286h-329.92z" fill="#683b11"/><path d="m742.31 2000h329.92l164.95-286h-329.91z" fill="#683b11"/><path d="m1237.18 1714h329.92l164.96-285h-329.92z" fill="#683b11"/><path d="m2000 286h-267.94l164.95 285h102.99z" fill="#38a8e0"/><path d="m2000 857h-267.94l164.95 286h102.99z" fill="#38a8e0"/><path d="m2000 1429h-267.94l164.95 285h102.99z" fill="#38a8e0"/><path d="m2000 0h-102.99l-164.95 286h267.94z" fill="#683b11"/><path d="m2000 571h-102.99l-164.95 286h267.94z" fill="#683b11"/><path d="m2000 1143h-102.99l-164.95 286h267.94z" fill="#683b11"/><path d="m1897.01 1714-164.95 286h267.94v-286z" fill="#683b11"/><path d="m0 571h247.44l-164.96-285h-82.48z" fill="#38a8e0"/><path d="m0 1143h247.44l-164.96-286h-82.48z" fill="#38a8e0"/><path d="m0 1714h247.44l-164.96-285h-82.48z" fill="#38a8e0"/><path d="m82.48 286 164.96-286h-247.44v286z" fill="#683b11"/><path d="m0 571v286h82.48l164.96-286z" fill="#683b11"/><path d="m0 1429h82.48l164.96-286h-247.44z" fill="#683b11"/><path d="m0 2000h82.48l164.96-286h-247.44z" fill="#683b11"/></svg>